<?xml version="1.0" encoding="UTF-8" standalone="no"?>
<!DOCTYPE svg PUBLIC "-//W3C//DTD SVG 1.1//EN" "http://www.w3.org/Graphics/SVG/1.1/DTD/svg11.dtd">
<svg width="100%" height="100%" viewBox="0 0 1080 1080" version="1.1" xmlns="http://www.w3.org/2000/svg" xmlns:xlink="http://www.w3.org/1999/xlink" xml:space="preserve" xmlns:serif="http://www.serif.com/" style="fill-rule:evenodd;clip-rule:evenodd;stroke-linejoin:round;stroke-miterlimit:10;">
    <g transform="matrix(1,0,0,1,-4774.66,-4461.64)">
        <g id="_1" serif:id="1" transform="matrix(0.730359,0,0,0.730359,3035.23,3106.14)">
            <rect x="2381.6" y="1855.94" width="1478.73" height="1478.73" style="fill:rgb(0,38,82);"/>
            <g transform="matrix(1.23716,0,0,1.23716,-651.036,-528.059)">
                <g transform="matrix(1.62588,0,0,1.62588,-1278.65,-1557.75)">
                    <g transform="matrix(20.8333,0,0,20.8333,2569.03,2291.02)">
                    </g>
                    <text x="2542.78px" y="2291.02px" style="font-family:'Code-Bold', 'Code Bold';font-weight:700;font-size:20.833px;fill:white;">A<tspan x="2555.47px " y="2291.02px ">D</tspan></text>
                </g>
                <g transform="matrix(1.7305,0,0,1.7305,-1491.17,-1796.1)">
                    <g transform="matrix(20.8333,0,0,20.8333,2565.19,2291.02)">
                    </g>
                    <text x="2542.78px" y="2291.02px" style="font-family:'Code-Bold', 'Code Bold';font-weight:700;font-size:20.833px;fill:white;">56</text>
                </g>
                <g transform="matrix(1.13792,0,0,1.13792,64.3324,-440.548)">
                    <g transform="matrix(20.8333,0,0,20.8333,2579.83,2291.02)">
                    </g>
                    <text x="2542.78px" y="2291.02px" style="font-family:'Arial-BoldMT', 'Communication38', sans-serif;font-weight:7;font-size:20.833px;fill:white;">mm</text>
                </g>
            </g>
            <g transform="matrix(1.23716,0,0,1.23716,-896.148,357.008)">
                <g transform="matrix(1.62588,0,0,1.62588,-1278.65,-1557.75)">
                    <g transform="matrix(20.8333,0,0,20.8333,2569.61,2291.02)">
                    </g>
                    <text x="2542.78px" y="2291.02px" style="font-family:'Code-Bold', 'Code Bold';font-weight:700;font-size:20.833px;fill:white;">A<tspan x="2554.82px " y="2291.02px ">C</tspan></text>
                </g>
                <g transform="matrix(1.7305,0,0,1.7305,-1491.17,-1796.1)">
                    <g transform="matrix(20.8333,0,0,20.8333,2565.19,2291.02)">
                    </g>
                    <text x="2542.78px" y="2291.02px" style="font-family:'Code-Bold', 'Code Bold';font-weight:700;font-size:20.833px;fill:white;">56</text>
                </g>
                <g transform="matrix(1.13792,0,0,1.13792,64.3324,-440.548)">
                    <g transform="matrix(20.8333,0,0,20.8333,2579.83,2291.02)">
                    </g>
                    <text x="2542.78px" y="2291.02px" style="font-family:'Arial-BoldMT', 'Communication38', sans-serif;font-weight:7;font-size:20.833px;fill:white;">mm</text>
                </g>
            </g>
            <g transform="matrix(1.7508,0,0,1.7508,-2301.05,-1803.15)">
                <g transform="matrix(0,2.5063,2.5063,0,2301.75,825.876)">
                    <circle cx="698.65" cy="335.13" r="83.4" style="fill:rgb(0,38,82);stroke:white;stroke-width:0.31px;"/>
                </g>
                <g transform="matrix(2.5063,0,0,2.5063,1390.66,1727.01)">
                    <rect x="588.7" y="308.29" width="50.45" height="57.65" style="fill:rgb(0,38,82);stroke:white;stroke-width:0.31px;stroke-linejoin:miter;stroke-miterlimit:8;"/>
                </g>
                <g transform="matrix(2.5063,0,0,2.5063,1390.66,1586.71)">
                    <rect x="580" y="357.88" width="14.45" height="14.45" style="fill:rgb(0,38,82);"/>
                </g>
                <g transform="matrix(2.5063,0,0,2.5063,1390.66,1574.18)">
                    <rect x="581.4" y="360.38" width="14.45" height="14.45" style="fill:rgb(0,38,82);"/>
                </g>
                <g transform="matrix(0,2.5063,2.5063,0,1976.66,1026.48)">
                    <circle cx="593.775" cy="359.965" r="5.275" style="fill:rgb(0,38,82);stroke:white;stroke-width:0.31px;stroke-miterlimit:8;"/>
                </g>
                <g transform="matrix(2.5063,0,0,2.5063,1390.66,1621.5)">
                    <rect x="594.4" y="350.94" width="14.45" height="14.45" style="fill:rgb(0,38,82);"/>
                </g>
                <g transform="matrix(0.00219658,2.50629,2.50629,-0.00219658,2087.58,1027.97)">
                    <path d="M587.5,337.415L644.55,337.415" style="fill:none;fill-rule:nonzero;stroke:white;stroke-width:0.23px;stroke-miterlimit:8;"/>
                </g>
                <g transform="matrix(2.5063,0,0,2.5063,1390.66,1646.31)">
                    <rect x="588.9" y="345.99" width="14.45" height="14.45" style="fill:rgb(0,38,82);"/>
                </g>
                <g transform="matrix(0.0046327,2.50629,2.50629,-0.0046327,2293.97,821.527)">
                    <path d="M685.4,337.215L712.45,337.215" style="fill:none;fill-rule:nonzero;stroke:white;stroke-width:0.16px;stroke-miterlimit:8;"/>
                </g>
                <g transform="matrix(2.5063,0,0,2.5063,1390.66,1866.87)">
                    <rect x="581.2" y="301.99" width="14.45" height="14.45" style="fill:rgb(0,38,82);"/>
                </g>
                <g transform="matrix(0,2.5063,2.5063,0,2088.94,1137.76)">
                    <circle cx="593.975" cy="315.365" r="5.275" style="fill:rgb(0,38,82);stroke:white;stroke-width:0.31px;stroke-miterlimit:8;"/>
                </g>
                <g transform="matrix(2.5063,0,0,2.5063,1390.66,1797.19)">
                    <rect x="589.6" y="315.89" width="14.45" height="14.45" style="fill:rgb(0,38,82);"/>
                </g>
                <g transform="matrix(2.5063,0,0,2.5063,1390.66,1822)">
                    <rect x="595.1" y="310.94" width="14.45" height="14.45" style="fill:rgb(0,38,82);"/>
                </g>
                <g transform="matrix(0,2.5063,2.5063,0,2304.25,826.002)">
                    <circle cx="699.125" cy="334.605" r="79.425" style="fill:rgb(0,38,82);stroke:white;stroke-width:0.31px;stroke-miterlimit:8;"/>
                </g>
                <g transform="matrix(-2.5063,1.53466e-16,1.53466e-16,2.5063,4895.09,1725.51)">
                    <circle cx="699.125" cy="337.415" r="19.825" style="fill:none;stroke:white;stroke-width:0.31px;stroke-miterlimit:8;"/>
                </g>
                <g transform="matrix(0.000741288,2.5063,2.5063,-0.000741288,2299.72,823.243)">
                    <path d="M614.4,336.005L783.45,336.005" style="fill:none;fill-rule:nonzero;stroke:white;stroke-width:0.08px;stroke-miterlimit:8;stroke-dasharray:0.23,0.08,0.08,0.08;"/>
                </g>
                <g transform="matrix(2.5063,0,0,2.5063,1390.66,1734.08)">
                    <path d="M754.3,279.75L642.57,391.48L642.75,391.66L754.48,279.93L754.3,279.75ZM753.44,284.47L754.55,279.68L749.76,280.78C749.69,280.8 749.65,280.86 749.67,280.93C749.68,281 749.75,281.04 749.82,281.02L754.41,279.96L754.26,279.81L753.2,284.41C753.19,284.48 753.23,284.55 753.29,284.56C753.36,284.58 753.43,284.53 753.44,284.47ZM643.6,386.94L642.5,391.73L647.29,390.62C647.36,390.61 647.4,390.54 647.38,390.47C647.37,390.4 647.3,390.36 647.23,390.38L642.64,391.44L642.79,391.59L643.85,386.99C643.86,386.92 643.82,386.86 643.75,386.84C643.69,386.83 643.62,386.87 643.6,386.94Z" style="fill:rgb(0,38,82);fill-rule:nonzero;stroke:white;stroke-width:0.31px;stroke-miterlimit:2;"/>
                </g>
                <g transform="matrix(-1.77222,1.77222,1.77222,1.77222,3607.46,1135.36)">
                    <path d="M603.516,271.965L658.034,271.965" style="fill:none;fill-rule:nonzero;stroke:white;stroke-width:0.08px;stroke-miterlimit:8;"/>
                </g>
                <g transform="matrix(-2.50629,0.00390997,0.00390997,2.50629,4374.79,2140.23)">
                    <path d="M579.5,254.215L611.55,254.215" style="fill:none;fill-rule:nonzero;stroke:white;stroke-width:0.08px;stroke-miterlimit:8;"/>
                </g>
                <g transform="matrix(0.00103523,-2.50629,-2.50629,-0.00103523,3876.87,3877.96)">
                    <path d="M527.5,404.205L648.55,404.205" style="fill:none;fill-rule:nonzero;stroke:white;stroke-width:0.08px;stroke-miterlimit:8;"/>
                </g>
                <g transform="matrix(-0.0058331,-2.50629,-2.50629,0.0058331,4229.05,4083.67)">
                    <path d="M666.75,431.905L731.2,431.905" style="fill:none;fill-rule:nonzero;stroke:white;stroke-width:0.08px;stroke-miterlimit:8;"/>
                </g>
                <g transform="matrix(2.5063,0,0,2.5063,1390.66,1130.07)">
                    <path d="M588.74,456.06L698.82,456.11L698.82,456.36L588.74,456.31L588.74,456.06ZM592.67,458.79L588.5,456.18L592.67,453.58C592.73,453.54 592.81,453.56 592.84,453.62C592.88,453.68 592.86,453.75 592.8,453.79L588.8,456.29L588.8,456.08L592.8,458.58C592.86,458.61 592.88,458.69 592.84,458.75C592.8,458.81 592.73,458.83 592.67,458.79ZM694.88,453.62L699.05,456.23L694.88,458.84C694.82,458.87 694.74,458.86 694.71,458.8C694.67,458.74 694.69,458.66 694.75,458.62L698.75,456.13L698.75,456.34L694.75,453.84C694.69,453.8 694.67,453.72 694.71,453.66C694.75,453.61 694.82,453.59 694.88,453.62Z" style="fill:rgb(0,38,82);fill-rule:nonzero;stroke:white;stroke-width:0.31px;stroke-miterlimit:2;"/>
                </g>
            </g>
        </g>
    </g>
</svg>
